<?xml version="1.0" ?><svg enable-background="new 0 0 32 32" id="Glyph" version="1.1" viewBox="0 0 32 32" xml:space="preserve" xmlns="http://www.w3.org/2000/svg" xmlns:xlink="http://www.w3.org/1999/xlink"><path d="M16,26c-1.104,0-2-0.896-2-2V8c0-1.104,0.896-2,2-2s2,0.896,2,2v16C18,25.104,17.104,26,16,26z" id="XMLID_298_"/><path d="M24,26c-1.104,0-2-0.896-2-2V8c0-1.104,0.896-2,2-2s2,0.896,2,2v16C26,25.104,25.104,26,24,26z" id="XMLID_310_"/><path d="M8,26c-1.104,0-2-0.896-2-2V8c0-1.104,0.896-2,2-2s2,0.896,2,2v16C10,25.104,9.104,26,8,26z" id="XMLID_312_"/></svg>