<?xml version="1.0" ?><svg fill="none" height="64" viewBox="0 0 64 64" width="64" xmlns="http://www.w3.org/2000/svg"><path d="M22.5 24C22.5 23.1716 23.1716 22.5 24 22.5H40C40.8284 22.5 41.5 23.1716 41.5 24C41.5 24.8284 40.8284 25.5 40 25.5H24C23.1716 25.5 22.5 24.8284 22.5 24Z" fill="black"/><path d="M22.5 32C22.5 31.1716 23.1716 30.5 24 30.5H40C40.8284 30.5 41.5 31.1716 41.5 32C41.5 32.8284 40.8284 33.5 40 33.5H24C23.1716 33.5 22.5 32.8284 22.5 32Z" fill="black"/><path d="M24 38.5C23.1716 38.5 22.5 39.1716 22.5 40C22.5 40.8284 23.1716 41.5 24 41.5H40C40.8284 41.5 41.5 40.8284 41.5 40C41.5 39.1716 40.8284 38.5 40 38.5H24Z" fill="black"/></svg>